# xmcd
# 
# Track frame offsets:
#     150
#     17397
#     34209
#     43420
#     56363
#     69419
#     88106
#     103247
#     118877
#     133518
#     146813
#     160650
# 
# Disc length: 2383
# 
# Revision: 0
# Processed by: cddbd v1.5.2PL0 Copyright (c) Steve Scherf et al.
# Submitted via: BonkEnc v1.0.15
# 
DISCID=a8094d0c
DTITLE=Rhythm 4 Boots - Country Inside
DYEAR=2014
DGENRE=Country
TTITLE0=01 Bedtime Stories And Lies
TTITLE1=02  Wild Angels
TTITLE2=03 Love In One Shot
TTITLE3=04 Still Like Boys
TTITLE4=05 Mama's Broken Heart
TTITLE5=06 Blind Faith And Dumb Luck
TTITLE6=07 I've Got The Blues
TTITLE7=08 Desperado
TTITLE8=09 Little White Church
TTITLE9=10 This Is Me
TTITLE10=11 Oh, My Badness!
TTITLE11=12 Just Like Jesse James
EXTD=
EXTT0=
EXTT1=
EXTT2=
EXTT3=
EXTT4=
EXTT5=
EXTT6=
EXTT7=
EXTT8=
EXTT9=
EXTT10=
EXTT11=
PLAYORDER=
